<svg width="603" height="207" viewBox="0 0 603 207" fill="none" xmlns="http://www.w3.org/2000/svg">
<path d="M131.434 151.18C126.688 156.453 119.744 160.701 110.604 163.924C101.463 167.146 91.4434 168.758 80.5449 168.758C63.7871 168.758 50.3984 163.631 40.3789 153.377C30.3594 143.123 24.998 128.855 24.2949 110.574L24.207 99.5C24.207 86.9023 26.4336 75.916 30.8867 66.541C35.3398 57.1074 41.6973 49.8711 49.959 44.832C58.2793 39.7344 67.8887 37.1855 78.7871 37.1855C94.7246 37.1855 107.088 40.8477 115.877 48.1719C124.725 55.4375 129.881 66.3066 131.346 80.7793H101.639C100.584 73.6309 98.2988 68.5332 94.7832 65.4863C91.2676 62.4395 86.2871 60.916 79.8418 60.916C72.1074 60.916 66.1309 64.1973 61.9121 70.7598C57.6934 77.3223 55.5547 86.6973 55.4961 98.8848V106.619C55.4961 119.393 57.6641 129.002 62 135.447C66.3945 141.834 73.2793 145.027 82.6543 145.027C90.6816 145.027 96.6582 143.24 100.584 139.666V119.803H79.1387V98.6211H131.434V151.18Z" fill="#A57D41"/>
<path d="M244.217 88.0898C241.844 90.7266 238.372 92.8506 233.802 94.4619C229.231 96.0732 224.222 96.8789 218.772 96.8789C210.394 96.8789 203.699 94.3154 198.689 89.1885C193.68 84.0615 190.999 76.9277 190.647 67.7871L190.604 62.25C190.604 55.9512 191.717 50.458 193.943 45.7705C196.17 41.0537 199.349 37.4355 203.479 34.916C207.64 32.3672 212.444 31.0928 217.894 31.0928C225.862 31.0928 232.044 32.9238 236.438 36.5859C240.862 40.2188 243.44 45.6533 244.173 52.8896H229.319C228.792 49.3154 227.649 46.7666 225.892 45.2432C224.134 43.7197 221.644 42.958 218.421 42.958C214.554 42.958 211.565 44.5986 209.456 47.8799C207.347 51.1611 206.277 55.8486 206.248 61.9424V65.8096C206.248 72.1963 207.332 77.001 209.5 80.2236C211.697 83.417 215.14 85.0137 219.827 85.0137C223.841 85.0137 226.829 84.1201 228.792 82.333V72.4014H218.069V61.8105H244.217V88.0898ZM279.285 96C278.758 95.0332 278.289 93.6123 277.879 91.7373C275.154 95.165 271.346 96.8789 266.453 96.8789C261.971 96.8789 258.162 95.5312 255.027 92.8359C251.893 90.1113 250.325 86.6982 250.325 82.5967C250.325 77.4404 252.229 73.5439 256.038 70.9072C259.847 68.2705 265.384 66.9521 272.649 66.9521H277.22V64.4473C277.22 60.082 275.33 57.8994 271.551 57.8994C268.035 57.8994 266.277 59.6279 266.277 63.085H251.468C251.468 58.4854 253.416 54.75 257.312 51.8789C261.238 49.0078 266.233 47.5723 272.298 47.5723C278.362 47.5723 283.152 49.0518 286.668 52.0107C290.184 54.9697 291.985 59.0273 292.073 64.1836V85.2334C292.132 89.5986 292.806 92.9385 294.095 95.2529V96H279.285ZM270.013 86.332C271.858 86.332 273.382 85.9365 274.583 85.1455C275.813 84.3545 276.692 83.4609 277.22 82.4648V74.8623H272.913C267.757 74.8623 265.179 77.1768 265.179 81.8057C265.179 83.1533 265.633 84.252 266.541 85.1016C267.449 85.9219 268.606 86.332 270.013 86.332ZM314.31 48.4512L314.793 54.0322C318.162 49.7256 322.688 47.5723 328.372 47.5723C334.378 47.5723 338.436 49.96 340.545 54.7354C343.768 49.96 348.426 47.5723 354.52 47.5723C364.158 47.5723 369.109 53.4023 369.373 65.0625V96H354.52V65.9854C354.52 63.5537 354.109 61.7812 353.289 60.668C352.469 59.5547 350.975 58.998 348.807 58.998C345.877 58.998 343.694 60.3018 342.259 62.9092L342.303 63.5244V96H327.449V66.0732C327.449 63.583 327.054 61.7812 326.263 60.668C325.472 59.5547 323.963 58.998 321.736 58.998C318.895 58.998 316.727 60.3018 315.232 62.9092V96H300.423V48.4512H314.31ZM400.838 96.8789C393.543 96.8789 387.64 94.7109 383.128 90.375C378.616 86.0098 376.36 80.3408 376.36 73.3682V72.1377C376.36 67.2744 377.254 62.9824 379.041 59.2617C380.857 55.541 383.494 52.6699 386.951 50.6484C390.408 48.5977 394.51 47.5723 399.256 47.5723C405.936 47.5723 411.209 49.6523 415.076 53.8125C418.943 57.9434 420.877 63.7148 420.877 71.127V76.8838H391.434C391.961 79.5498 393.118 81.6445 394.905 83.168C396.692 84.6914 399.007 85.4531 401.849 85.4531C406.536 85.4531 410.198 83.8125 412.835 80.5312L419.603 88.5293C417.757 91.0781 415.135 93.1143 411.736 94.6377C408.367 96.1318 404.734 96.8789 400.838 96.8789ZM399.168 58.998C394.832 58.998 392.254 61.8691 391.434 67.6113H406.375V66.4688C406.434 64.0957 405.833 62.2646 404.573 60.9756C403.313 59.6572 401.512 58.998 399.168 58.998ZM442.981 74.291V96H427.557V32.0156H453.089C457.981 32.0156 462.303 32.9238 466.053 34.7402C469.832 36.5273 472.747 39.0908 474.798 42.4307C476.878 45.7412 477.918 49.5059 477.918 53.7246C477.918 59.9648 475.677 64.96 471.194 68.71C466.741 72.4307 460.618 74.291 452.825 74.291H442.981ZM442.981 62.3818H453.089C456.077 62.3818 458.348 61.6348 459.9 60.1406C461.482 58.6465 462.273 56.5371 462.273 53.8125C462.273 50.8242 461.468 48.4365 459.856 46.6494C458.245 44.8623 456.048 43.9541 453.265 43.9248H442.981V62.3818ZM511.756 96C511.229 95.0332 510.76 93.6123 510.35 91.7373C507.625 95.165 503.816 96.8789 498.924 96.8789C494.441 96.8789 490.633 95.5312 487.498 92.8359C484.363 90.1113 482.796 86.6982 482.796 82.5967C482.796 77.4404 484.7 73.5439 488.509 70.9072C492.317 68.2705 497.854 66.9521 505.12 66.9521H509.69V64.4473C509.69 60.082 507.801 57.8994 504.021 57.8994C500.506 57.8994 498.748 59.6279 498.748 63.085H483.938C483.938 58.4854 485.887 54.75 489.783 51.8789C493.709 49.0078 498.704 47.5723 504.769 47.5723C510.833 47.5723 515.623 49.0518 519.139 52.0107C522.654 54.9697 524.456 59.0273 524.544 64.1836V85.2334C524.603 89.5986 525.276 92.9385 526.565 95.2529V96H511.756ZM502.483 86.332C504.329 86.332 505.853 85.9365 507.054 85.1455C508.284 84.3545 509.163 83.4609 509.69 82.4648V74.8623H505.384C500.228 74.8623 497.649 77.1768 497.649 81.8057C497.649 83.1533 498.104 84.252 499.012 85.1016C499.92 85.9219 501.077 86.332 502.483 86.332ZM548.406 96H533.553V48.4512H548.406V96ZM532.674 36.1904C532.674 34.0811 533.436 32.3525 534.959 31.0049C536.482 29.6572 538.46 28.9834 540.892 28.9834C543.323 28.9834 545.301 29.6572 546.824 31.0049C548.348 32.3525 549.109 34.0811 549.109 36.1904C549.109 38.2998 548.348 40.0283 546.824 41.376C545.301 42.7236 543.323 43.3975 540.892 43.3975C538.46 43.3975 536.482 42.7236 534.959 41.376C533.436 40.0283 532.674 38.2998 532.674 36.1904ZM573.191 96H558.338V28.5H573.191V96Z" fill="#EDEDED"/>
<path d="M200.726 141.016H193.68L192.449 145H186.956L194.778 123.672H199.612L207.493 145H201.971L200.726 141.016ZM194.91 137.046H199.495L197.195 129.648L194.91 137.046ZM221.131 130.85C222.186 129.521 223.533 128.857 225.174 128.857C226.922 128.857 228.24 129.375 229.129 130.41C230.018 131.445 230.472 132.974 230.491 134.995V145H225.54V135.112C225.54 134.272 225.369 133.657 225.027 133.267C224.686 132.866 224.104 132.666 223.284 132.666C222.269 132.666 221.551 132.988 221.131 133.633V145H216.194V122.5H221.131V130.85ZM242.679 143.286C241.634 144.624 240.223 145.293 238.445 145.293C236.707 145.293 235.389 144.79 234.49 143.784C233.602 142.769 233.157 141.313 233.157 139.419V129.15H238.094V139.448C238.094 140.806 238.753 141.484 240.071 141.484C241.204 141.484 242.01 141.079 242.488 140.269V129.15H247.454V145H242.825L242.679 143.286ZM249.593 136.958C249.593 135.356 249.856 133.94 250.384 132.71C250.911 131.479 251.668 130.532 252.654 129.868C253.641 129.194 254.788 128.857 256.097 128.857C257.747 128.857 259.036 129.414 259.964 130.527L260.14 129.15H264.622V144.399C264.622 145.796 264.295 147.007 263.641 148.032C262.996 149.067 262.059 149.858 260.828 150.405C259.598 150.962 258.172 151.24 256.551 151.24C255.389 151.24 254.261 151.021 253.167 150.581C252.083 150.142 251.253 149.57 250.677 148.867L252.742 145.967C253.66 147.051 254.871 147.593 256.375 147.593C258.562 147.593 259.656 146.47 259.656 144.224V143.726C258.709 144.771 257.513 145.293 256.067 145.293C254.134 145.293 252.571 144.556 251.38 143.081C250.188 141.597 249.593 139.614 249.593 137.134V136.958ZM254.544 137.266C254.544 138.564 254.788 139.595 255.276 140.356C255.765 141.108 256.448 141.484 257.327 141.484C258.392 141.484 259.168 141.128 259.656 140.415V133.75C259.178 133.027 258.411 132.666 257.356 132.666C256.478 132.666 255.789 133.062 255.291 133.853C254.793 134.634 254.544 135.771 254.544 137.266ZM275.096 145.293C272.664 145.293 270.696 144.57 269.192 143.125C267.688 141.67 266.937 139.78 266.937 137.456V137.046C266.937 135.425 267.234 133.994 267.83 132.754C268.436 131.514 269.314 130.557 270.467 129.883C271.619 129.199 272.986 128.857 274.568 128.857C276.795 128.857 278.553 129.551 279.842 130.938C281.131 132.314 281.775 134.238 281.775 136.709V138.628H271.961C272.137 139.517 272.522 140.215 273.118 140.723C273.714 141.23 274.485 141.484 275.433 141.484C276.995 141.484 278.216 140.938 279.095 139.844L281.351 142.51C280.735 143.359 279.861 144.038 278.729 144.546C277.605 145.044 276.395 145.293 275.096 145.293ZM274.539 132.666C273.094 132.666 272.234 133.623 271.961 135.537H276.941V135.156C276.961 134.365 276.761 133.755 276.341 133.325C275.921 132.886 275.32 132.666 274.539 132.666ZM290.667 136.958C290.667 135.356 290.931 133.94 291.458 132.71C291.985 131.479 292.742 130.532 293.729 129.868C294.715 129.194 295.862 128.857 297.171 128.857C298.821 128.857 300.11 129.414 301.038 130.527L301.214 129.15H305.696V144.399C305.696 145.796 305.369 147.007 304.715 148.032C304.07 149.067 303.133 149.858 301.902 150.405C300.672 150.962 299.246 151.24 297.625 151.24C296.463 151.24 295.335 151.021 294.241 150.581C293.157 150.142 292.327 149.57 291.751 148.867L293.816 145.967C294.734 147.051 295.945 147.593 297.449 147.593C299.637 147.593 300.73 146.47 300.73 144.224V143.726C299.783 144.771 298.587 145.293 297.142 145.293C295.208 145.293 293.646 144.556 292.454 143.081C291.263 141.597 290.667 139.614 290.667 137.134V136.958ZM295.618 137.266C295.618 138.564 295.862 139.595 296.351 140.356C296.839 141.108 297.522 141.484 298.401 141.484C299.466 141.484 300.242 141.128 300.73 140.415V133.75C300.252 133.027 299.485 132.666 298.431 132.666C297.552 132.666 296.863 133.062 296.365 133.853C295.867 134.634 295.618 135.771 295.618 137.266ZM317.43 145C317.254 144.678 317.098 144.204 316.961 143.579C316.053 144.722 314.783 145.293 313.152 145.293C311.658 145.293 310.389 144.844 309.344 143.945C308.299 143.037 307.776 141.899 307.776 140.532C307.776 138.813 308.411 137.515 309.681 136.636C310.95 135.757 312.796 135.317 315.218 135.317H316.741V134.482C316.741 133.027 316.111 132.3 314.852 132.3C313.68 132.3 313.094 132.876 313.094 134.028H308.157C308.157 132.495 308.807 131.25 310.105 130.293C311.414 129.336 313.079 128.857 315.101 128.857C317.122 128.857 318.719 129.351 319.891 130.337C321.062 131.323 321.663 132.676 321.692 134.395V141.411C321.712 142.866 321.937 143.979 322.366 144.751V145H317.43ZM314.339 141.777C314.954 141.777 315.462 141.646 315.862 141.382C316.272 141.118 316.565 140.82 316.741 140.488V137.954H315.306C313.587 137.954 312.728 138.726 312.728 140.269C312.728 140.718 312.879 141.084 313.182 141.367C313.484 141.641 313.87 141.777 314.339 141.777ZM329.104 129.15L329.266 131.011C330.389 129.575 331.897 128.857 333.792 128.857C335.794 128.857 337.146 129.653 337.85 131.245C338.924 129.653 340.477 128.857 342.508 128.857C345.721 128.857 347.371 130.801 347.459 134.688V145H342.508V134.995C342.508 134.185 342.371 133.594 342.098 133.223C341.824 132.852 341.326 132.666 340.604 132.666C339.627 132.666 338.899 133.101 338.421 133.97L338.436 134.175V145H333.484V135.024C333.484 134.194 333.353 133.594 333.089 133.223C332.825 132.852 332.322 132.666 331.58 132.666C330.633 132.666 329.91 133.101 329.412 133.97V145H324.476V129.15H329.104ZM357.947 145.293C355.516 145.293 353.548 144.57 352.044 143.125C350.54 141.67 349.788 139.78 349.788 137.456V137.046C349.788 135.425 350.086 133.994 350.682 132.754C351.287 131.514 352.166 130.557 353.318 129.883C354.471 129.199 355.838 128.857 357.42 128.857C359.646 128.857 361.404 129.551 362.693 130.938C363.982 132.314 364.627 134.238 364.627 136.709V138.628H354.812C354.988 139.517 355.374 140.215 355.97 140.723C356.565 141.23 357.337 141.484 358.284 141.484C359.847 141.484 361.067 140.938 361.946 139.844L364.202 142.51C363.587 143.359 362.713 144.038 361.58 144.546C360.457 145.044 359.246 145.293 357.947 145.293ZM357.391 132.666C355.945 132.666 355.086 133.623 354.812 135.537H359.793V135.156C359.812 134.365 359.612 133.755 359.192 133.325C358.772 132.886 358.172 132.666 357.391 132.666ZM388.812 137.192C388.812 139.653 388.255 141.621 387.142 143.096C386.038 144.561 384.544 145.293 382.659 145.293C381.204 145.293 380.008 144.761 379.07 143.696V151.094H374.134V129.15H378.748L378.895 130.615C379.842 129.443 381.087 128.857 382.63 128.857C384.583 128.857 386.102 129.58 387.186 131.025C388.27 132.461 388.812 134.438 388.812 136.958V137.192ZM383.875 136.885C383.875 134.072 383.055 132.666 381.414 132.666C380.242 132.666 379.461 133.086 379.07 133.926V140.166C379.5 141.045 380.291 141.484 381.443 141.484C383.016 141.484 383.826 140.127 383.875 137.412V136.885ZM396.209 145H391.258V122.5H396.209V145ZM408.191 145C408.016 144.678 407.859 144.204 407.723 143.579C406.814 144.722 405.545 145.293 403.914 145.293C402.42 145.293 401.15 144.844 400.105 143.945C399.061 143.037 398.538 141.899 398.538 140.532C398.538 138.813 399.173 137.515 400.442 136.636C401.712 135.757 403.558 135.317 405.979 135.317H407.503V134.482C407.503 133.027 406.873 132.3 405.613 132.3C404.441 132.3 403.855 132.876 403.855 134.028H398.919C398.919 132.495 399.568 131.25 400.867 130.293C402.176 129.336 403.841 128.857 405.862 128.857C407.884 128.857 409.48 129.351 410.652 130.337C411.824 131.323 412.425 132.676 412.454 134.395V141.411C412.474 142.866 412.698 143.979 413.128 144.751V145H408.191ZM405.101 141.777C405.716 141.777 406.224 141.646 406.624 141.382C407.034 141.118 407.327 140.82 407.503 140.488V137.954H406.067C404.349 137.954 403.489 138.726 403.489 140.269C403.489 140.718 403.641 141.084 403.943 141.367C404.246 141.641 404.632 141.777 405.101 141.777ZM420.95 125.21V129.15H423.558V132.578H420.95V139.829C420.95 140.425 421.058 140.84 421.272 141.074C421.487 141.309 421.912 141.426 422.547 141.426C423.035 141.426 423.445 141.396 423.777 141.338V144.868C422.889 145.151 421.961 145.293 420.994 145.293C419.295 145.293 418.04 144.893 417.229 144.092C416.419 143.291 416.014 142.075 416.014 140.444V132.578H413.992V129.15H416.014V125.21H420.95ZM426.604 145V132.578H424.305V129.15H426.604V127.891C426.604 126.084 427.137 124.683 428.201 123.687C429.266 122.69 430.76 122.192 432.684 122.192C433.387 122.192 434.158 122.295 434.998 122.5L435.013 126.133C434.71 126.045 434.305 126.001 433.797 126.001C432.303 126.001 431.556 126.646 431.556 127.935V129.15H434.646V132.578H431.556V145H426.604ZM435.76 136.929C435.76 135.347 436.067 133.94 436.683 132.71C437.298 131.47 438.182 130.518 439.334 129.854C440.486 129.189 441.839 128.857 443.392 128.857C445.765 128.857 447.635 129.595 449.002 131.069C450.369 132.534 451.053 134.531 451.053 137.061V137.236C451.053 139.707 450.364 141.67 448.987 143.125C447.62 144.57 445.765 145.293 443.421 145.293C441.165 145.293 439.354 144.619 437.986 143.271C436.619 141.914 435.882 140.078 435.774 137.764L435.76 136.929ZM440.696 137.236C440.696 138.701 440.926 139.775 441.385 140.459C441.844 141.143 442.522 141.484 443.421 141.484C445.179 141.484 446.077 140.132 446.116 137.427V136.929C446.116 134.087 445.208 132.666 443.392 132.666C441.741 132.666 440.848 133.892 440.711 136.343L440.696 137.236ZM462.815 133.618L461.189 133.501C459.637 133.501 458.641 133.989 458.201 134.966V145H453.265V129.15H457.894L458.055 131.187C458.885 129.634 460.042 128.857 461.526 128.857C462.054 128.857 462.513 128.916 462.903 129.033L462.815 133.618ZM469.261 129.15L469.422 131.011C470.545 129.575 472.054 128.857 473.948 128.857C475.95 128.857 477.303 129.653 478.006 131.245C479.08 129.653 480.633 128.857 482.664 128.857C485.877 128.857 487.527 130.801 487.615 134.688V145H482.664V134.995C482.664 134.185 482.527 133.594 482.254 133.223C481.98 132.852 481.482 132.666 480.76 132.666C479.783 132.666 479.056 133.101 478.577 133.97L478.592 134.175V145H473.641V135.024C473.641 134.194 473.509 133.594 473.245 133.223C472.981 132.852 472.479 132.666 471.736 132.666C470.789 132.666 470.066 133.101 469.568 133.97V145H464.632V129.15H469.261Z" fill="#EDEDED"/>
<rect x="3" y="16" width="158" height="174" stroke="#A57D41" stroke-width="6"/>
</svg>
