<svg width="56" height="63" viewBox="0 0 56 63" fill="none" xmlns="http://www.w3.org/2000/svg">
<path fill-rule="evenodd" clip-rule="evenodd" d="M3 3H53V60H3V3ZM0 0H3H53H56V3V60V63H53H3H0V60V3V0ZM39.2012 50.9746C42.248 49.9004 44.5625 48.4844 46.1445 46.7266V29.207H28.7129V36.2676H35.8613V42.8887C34.5527 44.0801 32.5605 44.6758 29.8848 44.6758C26.7598 44.6758 24.4648 43.6113 23 41.4824C21.5547 39.334 20.832 36.1309 20.832 31.873V29.2949C20.8516 25.2324 21.5645 22.1074 22.9707 19.9199C24.377 17.7324 26.3691 16.6387 28.9473 16.6387C31.0957 16.6387 32.7559 17.1465 33.9277 18.1621C35.0996 19.1777 35.8613 20.877 36.2129 23.2598H46.1152C45.627 18.4355 43.9082 14.8125 40.959 12.3906C38.0293 9.94922 33.9082 8.72852 28.5957 8.72852C24.9629 8.72852 21.7598 9.57812 18.9863 11.2773C16.2324 12.957 14.1133 15.3691 12.6289 18.5137C11.1445 21.6387 10.4023 25.3008 10.4023 29.5L10.4316 33.1914C10.666 39.2852 12.4531 44.041 15.793 47.459C19.1328 50.877 23.5957 52.5859 29.1816 52.5859C32.8145 52.5859 36.1543 52.0488 39.2012 50.9746Z" fill="#A57D41"/>
</svg>
